<svg width="305" height="40" viewBox="0 0 305 40" fill="none" xmlns="http://www.w3.org/2000/svg">
<path d="M24.3067 2.91438C28.7777 5.32919 33.7505 6.66763 38.8296 6.82329C39.1064 10.7204 38.8542 14.637 38.0801 18.4664C36.2064 27.4027 31.5739 33.6898 24.3067 37.2038C17.0395 33.6898 12.3955 27.3854 10.5333 18.4664C9.75921 14.637 9.50709 10.7204 9.78377 6.82329C14.8629 6.66763 19.8356 5.32919 24.3067 2.91438ZM24.3067 0C24.3067 0 17.6765 4.37014 8.51827 4.37014C8.17235 4.37014 7.82643 4.37014 7.47475 4.35284C7.47475 4.35284 3.45918 30.7437 24.3067 40C45.1542 30.7437 41.1386 4.35284 41.1386 4.35284C40.7869 4.35284 40.4381 4.37014 40.0951 4.37014C30.9368 4.37014 24.3067 0 24.3067 0Z" fill="url(#paint0_linear_1_265)"/>
<path d="M24.3067 2.94609C19.8347 5.35831 14.8624 6.69565 9.78375 6.85212C9.50707 10.7492 9.75919 14.6658 10.5332 18.4952C12.407 27.4315 17.0394 33.7215 24.3067 37.2326C31.5739 33.7215 36.2064 27.4315 38.0801 18.4952C38.8542 14.6658 39.1063 10.7492 38.8296 6.85212C33.751 6.69565 28.7786 5.35831 24.3067 2.94609ZM37.4747 18.4491C35.6731 27.028 31.2424 33.1075 24.3038 36.5206C17.3681 33.1104 12.9374 27.0308 11.1357 18.4491C10.4036 14.8283 10.1488 11.1272 10.3776 7.44018C15.2426 7.2322 20.0001 5.94214 24.3038 3.66388C28.6064 5.94227 33.3629 7.23235 38.2271 7.44018C38.4609 11.1269 38.2079 14.8284 37.4747 18.4491Z" fill="url(#paint1_linear_1_265)"/>
<path d="M37.4747 18.4491C35.6731 27.028 31.2424 33.1075 24.3038 36.5206C17.3681 33.1104 12.9374 27.0308 11.1357 18.4491C10.4022 14.8285 10.1473 11.1272 10.3776 7.44018C15.2426 7.2322 20.0001 5.94214 24.3038 3.66388C28.6064 5.94227 33.363 7.23235 38.2271 7.44018C38.4609 11.1269 38.2079 14.8284 37.4747 18.4491Z" fill="url(#paint2_linear_1_265)"/>
<path d="M21.8795 14.8314H14.0214L24.3067 18.1724L21.8795 14.8314Z" fill="#FFF100"/>
<path d="M24.3068 18.1724L30.6631 26.9213L28.2359 19.4494L24.3068 18.1724Z" fill="#FFF100"/>
<path d="M17.9504 26.9213L24.3067 22.3033V18.1724L17.9504 26.9213Z" fill="#FFCA05"/>
<path d="M34.5921 14.8314H26.734L24.3068 18.1724L34.5921 14.8314Z" fill="#FFF100"/>
<path d="M24.3068 22.3033L30.6631 26.9213L24.3068 18.1724V22.3033Z" fill="#FFCA05"/>
<path d="M24.3067 18.1724L20.3777 19.4494L17.9504 26.9213L24.3067 18.1724Z" fill="#FFF100"/>
<path d="M21.8795 14.8314L24.3067 18.1724V7.35659L21.8795 14.8314Z" fill="#FFF100"/>
<path d="M24.3068 7.35659V18.1724L26.734 14.8314L24.3068 7.35659Z" fill="#FFCA05"/>
<path d="M24.3067 18.1724L14.0214 14.8314L20.3777 19.4494L24.3067 18.1724Z" fill="#FFCA05"/>
<path d="M24.3068 18.1724L28.2358 19.4494L34.5921 14.8314L24.3068 18.1724Z" fill="#FFCA05"/>
<path d="M61.7679 8.53418C61.1498 8.53418 60.6012 8.65571 60.1221 8.89876C59.6498 9.13487 59.2505 9.47862 58.9242 9.93001C58.6047 10.3814 58.3617 10.9265 58.195 11.5654C58.0283 12.2043 57.945 12.9231 57.945 13.7217C57.945 14.7981 58.0769 15.7182 58.3408 16.4821C58.6117 17.239 59.0283 17.8189 59.5908 18.2217C60.1533 18.6175 60.879 18.8154 61.7679 18.8154C62.386 18.8154 63.004 18.746 63.6221 18.6071C64.2471 18.4682 64.9242 18.2703 65.6533 18.0133V20.7217C64.9797 20.9995 64.3165 21.1974 63.6637 21.3154C63.011 21.4404 62.2783 21.5029 61.4658 21.5029C59.8964 21.5029 58.6047 21.18 57.5908 20.5342C56.5839 19.8814 55.8373 18.9717 55.3512 17.805C54.8651 16.6314 54.6221 15.2633 54.6221 13.7008C54.6221 12.5481 54.7783 11.4925 55.0908 10.5342C55.4033 9.57585 55.8617 8.74599 56.4658 8.0446C57.07 7.34321 57.8165 6.80154 58.7054 6.4196C59.5943 6.03765 60.6151 5.84668 61.7679 5.84668C62.5248 5.84668 63.2818 5.9439 64.0387 6.13835C64.8026 6.32585 65.5318 6.58626 66.2262 6.9196L65.1846 9.5446C64.6151 9.27376 64.0422 9.03765 63.4658 8.83626C62.8894 8.63487 62.3235 8.53418 61.7679 8.53418Z" fill="#0451A1"/>
<path d="M80.2325 6.06543V15.9196C80.2325 16.9682 79.9999 17.9161 79.5346 18.7633C79.0762 19.6036 78.3783 20.2703 77.4408 20.7633C76.5103 21.2564 75.3367 21.5029 73.92 21.5029C71.9061 21.5029 70.3714 20.989 69.3158 19.9613C68.2603 18.9335 67.7325 17.5724 67.7325 15.8779V6.06543H70.9512V15.3883C70.9512 16.6453 71.2082 17.5272 71.7221 18.0342C72.236 18.5411 72.9964 18.7946 74.0033 18.7946C74.7117 18.7946 75.2846 18.6731 75.7221 18.43C76.1665 18.187 76.4929 17.812 76.7012 17.305C76.9096 16.7981 77.0137 16.1522 77.0137 15.3675V6.06543H80.2325ZM73.92 25.7738C73.4408 25.7738 73.0311 25.6592 72.6908 25.43C72.3575 25.2078 72.1908 24.805 72.1908 24.2217C72.1908 23.6245 72.3575 23.2147 72.6908 22.9925C73.0311 22.7703 73.4408 22.6592 73.92 22.6592C74.3922 22.6592 74.7985 22.7703 75.1387 22.9925C75.479 23.2147 75.6492 23.6245 75.6492 24.2217C75.6492 24.805 75.479 25.2078 75.1387 25.43C74.7985 25.6592 74.3922 25.7738 73.92 25.7738Z" fill="#0451A1"/>
<path d="M89.3637 8.53418C88.7457 8.53418 88.1971 8.65571 87.7179 8.89876C87.2457 9.13487 86.8464 9.47862 86.52 9.93001C86.2005 10.3814 85.9575 10.9265 85.7908 11.5654C85.6242 12.2043 85.5408 12.9231 85.5408 13.7217C85.5408 14.7981 85.6728 15.7182 85.9367 16.4821C86.2075 17.239 86.6242 17.8189 87.1867 18.2217C87.7492 18.6175 88.4748 18.8154 89.3637 18.8154C89.9818 18.8154 90.5999 18.746 91.2179 18.6071C91.8429 18.4682 92.52 18.2703 93.2492 18.0133V20.7217C92.5755 20.9995 91.9124 21.1974 91.2596 21.3154C90.6068 21.4404 89.8742 21.5029 89.0617 21.5029C87.4922 21.5029 86.2005 21.18 85.1867 20.5342C84.1797 19.8814 83.4332 18.9717 82.9471 17.805C82.461 16.6314 82.2179 15.2633 82.2179 13.7008C82.2179 12.5481 82.3742 11.4925 82.6867 10.5342C82.9992 9.57585 83.4575 8.74599 84.0617 8.0446C84.6658 7.34321 85.4124 6.80154 86.3012 6.4196C87.1901 6.03765 88.211 5.84668 89.3637 5.84668C90.1207 5.84668 90.8776 5.9439 91.6346 6.13835C92.3985 6.32585 93.1276 6.58626 93.8221 6.9196L92.7804 9.5446C92.211 9.27376 91.638 9.03765 91.0617 8.83626C90.4853 8.63487 89.9193 8.53418 89.3637 8.53418Z" fill="#0451A1"/>
<path d="M109.23 21.2946L108.126 17.6696H102.574L101.47 21.2946H97.9908L103.366 6.00293H107.314L112.71 21.2946H109.23ZM107.355 14.9613L106.251 11.4196C106.182 11.1835 106.088 10.8814 105.97 10.5133C105.859 10.1383 105.744 9.75987 105.626 9.37793C105.515 8.98904 105.425 8.65224 105.355 8.36751C105.286 8.65224 105.189 9.0064 105.064 9.43001C104.946 9.84668 104.831 10.2425 104.72 10.6175C104.609 10.9925 104.529 11.2599 104.48 11.4196L103.387 14.9613H107.355Z" fill="#0451A1"/>
<path d="M127.08 21.2946H122.976L116.351 9.77376H116.257C116.285 10.2529 116.31 10.7356 116.33 11.2217C116.351 11.7078 116.372 12.1939 116.393 12.68C116.414 13.1592 116.435 13.6418 116.455 14.1279V21.2946H113.57V6.06543H117.643L124.257 17.4717H124.33C124.317 16.9995 124.299 16.5307 124.278 16.0654C124.257 15.6002 124.237 15.1349 124.216 14.6696C124.202 14.2043 124.188 13.739 124.174 13.2738V6.06543H127.08V21.2946Z" fill="#0451A1"/>
<path d="M140.207 21.2946H136.978V8.75293H132.843V6.06543H144.343V8.75293H140.207V21.2946Z" fill="#0451A1"/>
<path d="M159.443 13.6592C159.443 14.8328 159.297 15.9022 159.005 16.8675C158.714 17.8258 158.269 18.6522 157.672 19.3467C157.082 20.0411 156.332 20.5758 155.422 20.9508C154.512 21.3189 153.436 21.5029 152.193 21.5029C150.95 21.5029 149.873 21.3189 148.964 20.9508C148.054 20.5758 147.301 20.0411 146.703 19.3467C146.113 18.6522 145.672 17.8224 145.38 16.8571C145.089 15.8918 144.943 14.8189 144.943 13.6383C144.943 12.062 145.2 10.6904 145.714 9.52376C146.235 8.35015 147.033 7.44043 148.11 6.7946C149.186 6.14876 150.554 5.82585 152.214 5.82585C153.867 5.82585 155.224 6.14876 156.287 6.7946C157.356 7.44043 158.148 8.35015 158.662 9.52376C159.182 10.6974 159.443 12.0758 159.443 13.6592ZM148.328 13.6592C148.328 14.7217 148.46 15.6383 148.724 16.4092C148.995 17.1731 149.415 17.7633 149.985 18.18C150.554 18.5897 151.29 18.7946 152.193 18.7946C153.11 18.7946 153.853 18.5897 154.422 18.18C154.992 17.7633 155.405 17.1731 155.662 16.4092C155.926 15.6383 156.057 14.7217 156.057 13.6592C156.057 12.062 155.759 10.805 155.162 9.88835C154.564 8.97168 153.582 8.51335 152.214 8.51335C151.304 8.51335 150.561 8.72168 149.985 9.13835C149.415 9.54807 148.995 10.1383 148.724 10.9092C148.46 11.6731 148.328 12.5897 148.328 13.6592Z" fill="#0451A1"/>
<path d="M170.855 21.2946L169.751 17.6696H164.199L163.095 21.2946H159.616L164.991 6.00293H168.939L174.335 21.2946H170.855ZM168.98 14.9613L167.876 11.4196C167.807 11.1835 167.713 10.8814 167.595 10.5133C167.484 10.1383 167.369 9.75987 167.251 9.37793C167.14 8.98904 167.05 8.65224 166.98 8.36751C166.911 8.65224 166.814 9.0064 166.689 9.43001C166.571 9.84668 166.456 10.2425 166.345 10.6175C166.234 10.9925 166.154 11.2599 166.105 11.4196L165.012 14.9613H168.98ZM166.46 1.36751C166.668 1.68696 166.918 2.04112 167.21 2.43001C167.508 2.8189 167.81 3.19737 168.116 3.56543C168.421 3.92654 168.685 4.23904 168.908 4.50293V4.78418H166.803C166.533 4.59668 166.217 4.36404 165.855 4.08626C165.494 3.80154 165.123 3.5064 164.741 3.20085C164.366 2.88835 164.015 2.58973 163.689 2.30501C163.362 2.02029 163.098 1.78071 162.897 1.58626V1.36751H166.46Z" fill="#0451A1"/>
<path d="M188.705 21.2946H184.601L177.976 9.77376H177.882C177.91 10.2529 177.935 10.7356 177.955 11.2217C177.976 11.7078 177.997 12.1939 178.018 12.68C178.039 13.1592 178.06 13.6418 178.08 14.1279V21.2946H175.195V6.06543H179.268L185.883 17.4717H185.955C185.942 16.9995 185.924 16.5307 185.903 16.0654C185.883 15.6002 185.862 15.1349 185.841 14.6696C185.827 14.2043 185.813 13.739 185.799 13.2738V6.06543H188.705V21.2946Z" fill="#0451A1"/>
<path d="M201.833 21.2946H198.603V8.75293H194.468V6.06543H205.968V8.75293H201.833V21.2946Z" fill="#0451A1"/>
<path d="M219.724 21.2946H216.505V14.7217H210.474V21.2946H207.245V6.06543H210.474V12.0342H216.505V6.06543H219.724V21.2946Z" fill="#0451A1"/>
<path d="M236.335 13.6592C236.335 14.8328 236.189 15.9022 235.897 16.8675C235.605 17.8258 235.161 18.6522 234.564 19.3467C233.973 20.0411 233.223 20.5758 232.314 20.9508C231.404 21.3189 230.328 21.5029 229.085 21.5029C227.842 21.5029 226.765 21.3189 225.855 20.9508C224.946 20.5758 224.192 20.0411 223.595 19.3467C223.005 18.6522 222.564 17.8224 222.272 16.8571C221.98 15.8918 221.835 14.8189 221.835 13.6383C221.835 12.062 222.092 10.6904 222.605 9.52376C223.126 8.35015 223.925 7.44043 225.001 6.7946C226.078 6.14876 227.446 5.82585 229.105 5.82585C230.758 5.82585 232.116 6.14876 233.178 6.7946C234.248 7.44043 235.039 8.35015 235.553 9.52376C236.074 10.6974 236.335 12.0758 236.335 13.6592ZM225.22 13.6592C225.22 14.7217 225.352 15.6383 225.616 16.4092C225.887 17.1731 226.307 17.7633 226.876 18.18C227.446 18.5897 228.182 18.7946 229.085 18.7946C230.001 18.7946 230.744 18.5897 231.314 18.18C231.883 17.7633 232.296 17.1731 232.553 16.4092C232.817 15.6383 232.949 14.7217 232.949 13.6592C232.949 12.062 232.651 10.805 232.053 9.88835C231.456 8.97168 230.473 8.51335 229.105 8.51335C228.196 8.51335 227.453 8.72168 226.876 9.13835C226.307 9.54807 225.887 10.1383 225.616 10.9092C225.352 11.6731 225.22 12.5897 225.22 13.6592ZM230.96 1.36751C231.161 1.68696 231.421 2.04112 231.741 2.43001C232.067 2.8189 232.401 3.19737 232.741 3.56543C233.081 3.93348 233.376 4.24598 233.626 4.50293V4.78418H231.522C231.147 4.56196 230.737 4.29807 230.293 3.99251C229.855 3.68001 229.453 3.33279 229.085 2.95085C228.71 3.33279 228.31 3.67654 227.887 3.9821C227.463 4.28071 227.067 4.54807 226.699 4.78418H224.585V4.50293C224.848 4.23904 225.151 3.92654 225.491 3.56543C225.831 3.19737 226.161 2.8189 226.48 2.43001C226.8 2.04112 227.057 1.68696 227.251 1.36751H230.96Z" fill="#0451A1"/>
<path d="M251.935 21.2946H247.83L241.205 9.77376H241.112C241.139 10.2529 241.164 10.7356 241.185 11.2217C241.205 11.7078 241.226 12.1939 241.247 12.68C241.268 13.1592 241.289 13.6418 241.31 14.1279V21.2946H238.424V6.06543H242.497L249.112 17.4717H249.185C249.171 16.9995 249.153 16.5307 249.133 16.0654C249.112 15.6002 249.091 15.1349 249.07 14.6696C249.056 14.2043 249.042 13.739 249.028 13.2738V6.06543H251.935V21.2946Z" fill="#0451A1"/>
<path d="M260.493 12.7425H266.535V20.6383C265.736 20.9022 264.906 21.114 264.045 21.2738C263.184 21.4265 262.208 21.5029 261.118 21.5029C259.604 21.5029 258.319 21.2043 257.264 20.6071C256.208 20.0099 255.406 19.1279 254.858 17.9613C254.309 16.7946 254.035 15.3606 254.035 13.6592C254.035 12.062 254.34 10.68 254.951 9.51335C255.569 8.34668 256.469 7.4439 257.649 6.80501C258.837 6.16612 260.285 5.84668 261.993 5.84668C262.798 5.84668 263.594 5.93349 264.378 6.1071C265.163 6.28071 265.875 6.5064 266.514 6.78418L265.441 9.36751C264.976 9.1314 264.444 8.93349 263.847 8.77376C263.25 8.61404 262.625 8.53418 261.972 8.53418C261.035 8.53418 260.219 8.74946 259.524 9.18001C258.837 9.61057 258.302 10.2147 257.92 10.9925C257.545 11.7633 257.358 12.6731 257.358 13.7217C257.358 14.7147 257.493 15.5967 257.764 16.3675C258.035 17.1314 258.462 17.7321 259.045 18.1696C259.628 18.6002 260.389 18.8154 261.326 18.8154C261.785 18.8154 262.17 18.7946 262.483 18.7529C262.802 18.7043 263.101 18.6557 263.378 18.6071V15.43H260.493V12.7425Z" fill="#0451A1"/>
<path d="M279.453 21.2946H276.224V8.75293H272.089V6.06543H283.589V8.75293H279.453V21.2946Z" fill="#0451A1"/>
<path d="M284.866 21.2946V6.06543H288.095V21.2946H284.866Z" fill="#0451A1"/>
<path d="M304.372 21.2946H300.268L293.643 9.77376H293.549C293.577 10.2529 293.601 10.7356 293.622 11.2217C293.643 11.7078 293.664 12.1939 293.685 12.68C293.705 13.1592 293.726 13.6418 293.747 14.1279V21.2946H290.862V6.06543H294.935L301.549 17.4717H301.622C301.608 16.9995 301.591 16.5307 301.57 16.0654C301.549 15.6002 301.528 15.1349 301.508 14.6696C301.494 14.2043 301.48 13.739 301.466 13.2738V6.06543H304.372V21.2946Z" fill="#0451A1"/>
<path d="M59.7126 38.5413L58.8923 36.4268H56.2217L55.4059 38.5413H54.6221L57.2288 31.8512H57.9261L60.5146 38.5413H59.7126ZM58.6598 35.7386L57.8805 33.6377C57.8623 33.583 57.8319 33.4934 57.7894 33.3688C57.7499 33.2443 57.7089 33.1151 57.6663 32.9814C57.6238 32.8478 57.5889 32.7399 57.5615 32.6579C57.5311 32.7824 57.4977 32.907 57.4613 33.0316C57.4278 33.1531 57.3944 33.267 57.361 33.3734C57.3276 33.4767 57.2987 33.5648 57.2744 33.6377L56.4814 35.7386H58.6598Z" fill="black"/>
<path d="M66.4801 31.8786V36.1898C66.4801 36.6607 66.3844 37.08 66.193 37.4476C66.0047 37.8152 65.7191 38.1054 65.3363 38.318C64.9535 38.5277 64.4734 38.6325 63.8962 38.6325C63.0728 38.6325 62.4454 38.4092 62.014 37.9626C61.5856 37.516 61.3714 36.9189 61.3714 36.1716V31.8786H62.1507V36.1943C62.1507 36.7594 62.2996 37.1954 62.5973 37.5023C62.8981 37.8091 63.3462 37.9626 63.9417 37.9626C64.3489 37.9626 64.6815 37.8897 64.9398 37.7438C65.2011 37.5949 65.394 37.3883 65.5186 37.124C65.6462 36.8567 65.71 36.5483 65.71 36.1989V31.8786H66.4801Z" fill="black"/>
<path d="M70.2946 38.5413H69.5153V32.5622H67.4189V31.8786H72.3818V32.5622H70.2946V38.5413Z" fill="black"/>
<path d="M78.4385 38.5413H77.6637V35.4014H74.1637V38.5413H73.389V31.8786H74.1637V34.7178H77.6637V31.8786H78.4385V38.5413Z" fill="black"/>
<path d="M86.0492 35.2008C86.0492 35.7143 85.9838 36.1822 85.8532 36.6045C85.7226 37.0238 85.5281 37.3853 85.2699 37.6891C85.0147 37.9899 84.6972 38.2223 84.3174 38.3864C83.9376 38.5505 83.4971 38.6325 82.9958 38.6325C82.4793 38.6325 82.0281 38.5505 81.6423 38.3864C81.2594 38.2223 80.9404 37.9884 80.6852 37.6846C80.4331 37.3808 80.2432 37.0177 80.1156 36.5954C79.991 36.1731 79.9287 35.7052 79.9287 35.1917C79.9287 34.5112 80.0411 33.9142 80.266 33.4007C80.4908 32.8873 80.8311 32.4877 81.2868 32.2022C81.7456 31.9166 82.3198 31.7738 83.0094 31.7738C83.6687 31.7738 84.2232 31.915 84.6729 32.1976C85.1255 32.4801 85.4673 32.8781 85.6982 33.3916C85.9322 33.902 86.0492 34.5051 86.0492 35.2008ZM80.7445 35.2008C80.7445 35.766 80.825 36.2551 80.986 36.6683C81.147 37.0815 81.3931 37.4005 81.7243 37.6253C82.0585 37.8502 82.4823 37.9626 82.9958 37.9626C83.5123 37.9626 83.9346 37.8502 84.2627 37.6253C84.5939 37.4005 84.8384 37.0815 84.9964 36.6683C85.1544 36.2551 85.2334 35.766 85.2334 35.2008C85.2334 34.341 85.0526 33.6696 84.6911 33.1865C84.3326 32.7004 83.772 32.4574 83.0094 32.4574C82.493 32.4574 82.0676 32.5683 81.7334 32.79C81.3992 33.0118 81.1501 33.3278 80.986 33.738C80.825 34.1451 80.7445 34.6327 80.7445 35.2008Z" fill="black"/>
<path d="M89.335 31.8786C89.8818 31.8786 90.333 31.9469 90.6885 32.0837C91.047 32.2173 91.3144 32.4224 91.4906 32.6989C91.6668 32.9754 91.7549 33.3278 91.7549 33.7562C91.7549 34.1086 91.6911 34.4033 91.5635 34.6403C91.4359 34.8742 91.2688 35.0641 91.0622 35.21C90.8556 35.3558 90.6353 35.4682 90.4014 35.5472L92.2288 38.5413H91.3265L89.695 35.7614H88.3096V38.5413H87.5348V31.8786H89.335ZM89.2894 32.5485H88.3096V35.1051H89.3669C89.9107 35.1051 90.3102 34.9943 90.5654 34.7725C90.8237 34.5507 90.9528 34.2241 90.9528 33.7926C90.9528 33.34 90.8161 33.0194 90.5426 32.8311C90.2722 32.6427 89.8545 32.5485 89.2894 32.5485Z" fill="black"/>
<path d="M93.2953 38.5413V31.8786H94.07V38.5413H93.2953Z" fill="black"/>
<path d="M97.9482 38.5413H97.1689V32.5622H95.0726V31.8786H100.035V32.5622H97.9482V38.5413Z" fill="black"/>
<path d="M102.743 35.2191L104.515 31.8786H105.349L103.13 35.9574V38.5413H102.355V35.9938L100.131 31.8786H100.979L102.743 35.2191Z" fill="black"/>
<path d="M114.468 35.2008C114.468 35.7143 114.403 36.1822 114.272 36.6045C114.142 37.0238 113.947 37.3853 113.689 37.6891C113.434 37.9899 113.116 38.2223 112.737 38.3864C112.357 38.5505 111.916 38.6325 111.415 38.6325C110.899 38.6325 110.447 38.5505 110.062 38.3864C109.679 38.2223 109.36 37.9884 109.104 37.6846C108.852 37.3808 108.662 37.0177 108.535 36.5954C108.41 36.1731 108.348 35.7052 108.348 35.1917C108.348 34.5112 108.46 33.9142 108.685 33.4007C108.91 32.8873 109.25 32.4877 109.706 32.2022C110.165 31.9166 110.739 31.7738 111.429 31.7738C112.088 31.7738 112.642 31.915 113.092 32.1976C113.545 32.4801 113.887 32.8781 114.118 33.3916C114.351 33.902 114.468 34.5051 114.468 35.2008ZM109.164 35.2008C109.164 35.766 109.244 36.2551 109.405 36.6683C109.566 37.0815 109.812 37.4005 110.144 37.6253C110.478 37.8502 110.902 37.9626 111.415 37.9626C111.932 37.9626 112.354 37.8502 112.682 37.6253C113.013 37.4005 113.258 37.0815 113.416 36.6683C113.574 36.2551 113.653 35.766 113.653 35.2008C113.653 34.341 113.472 33.6696 113.11 33.1865C112.752 32.7004 112.191 32.4574 111.429 32.4574C110.912 32.4574 110.487 32.5683 110.153 32.79C109.818 33.0118 109.569 33.3278 109.405 33.738C109.244 34.1451 109.164 34.6327 109.164 35.2008Z" fill="black"/>
<path d="M116.729 38.5413H115.954V31.8786H119.664V32.5622H116.729V35.0049H119.486V35.6839H116.729V38.5413Z" fill="black"/>
<path d="M123.2 38.5413V31.8786H123.975V38.5413H123.2Z" fill="black"/>
<path d="M131.016 38.5413H130.123L126.491 32.945H126.454C126.463 33.0939 126.474 33.264 126.486 33.4554C126.498 33.6438 126.507 33.8458 126.513 34.0615C126.522 34.2742 126.527 34.4914 126.527 34.7132V38.5413H125.807V31.8786H126.696L130.314 37.4567H130.346C130.34 37.3504 130.332 37.2 130.323 37.0055C130.314 36.8081 130.305 36.5969 130.296 36.3721C130.29 36.1442 130.287 35.9331 130.287 35.7386V31.8786H131.016V38.5413Z" fill="black"/>
<path d="M133.609 38.5413H132.834V31.8786H136.544V32.5622H133.609V35.0049H136.366V35.6839H133.609V38.5413Z" fill="black"/>
<path d="M143.435 35.2008C143.435 35.7143 143.369 36.1822 143.239 36.6045C143.108 37.0238 142.914 37.3853 142.655 37.6891C142.4 37.9899 142.083 38.2223 141.703 38.3864C141.323 38.5505 140.882 38.6325 140.381 38.6325C139.865 38.6325 139.414 38.5505 139.028 38.3864C138.645 38.2223 138.326 37.9884 138.071 37.6846C137.818 37.3808 137.629 37.0177 137.501 36.5954C137.376 36.1731 137.314 35.7052 137.314 35.1917C137.314 34.5112 137.427 33.9142 137.651 33.4007C137.876 32.8873 138.216 32.4877 138.672 32.2022C139.131 31.9166 139.705 31.7738 140.395 31.7738C141.054 31.7738 141.609 31.915 142.058 32.1976C142.511 32.4801 142.853 32.8781 143.084 33.3916C143.318 33.902 143.435 34.5051 143.435 35.2008ZM138.13 35.2008C138.13 35.766 138.21 36.2551 138.371 36.6683C138.532 37.0815 138.779 37.4005 139.11 37.6253C139.444 37.8502 139.868 37.9626 140.381 37.9626C140.898 37.9626 141.32 37.8502 141.648 37.6253C141.979 37.4005 142.224 37.0815 142.382 36.6683C142.54 36.2551 142.619 35.766 142.619 35.2008C142.619 34.341 142.438 33.6696 142.077 33.1865C141.718 32.7004 141.157 32.4574 140.395 32.4574C139.878 32.4574 139.453 32.5683 139.119 32.79C138.785 33.0118 138.535 33.3278 138.371 33.738C138.21 34.1451 138.13 34.6327 138.13 35.2008Z" fill="black"/>
<path d="M146.72 31.8786C147.267 31.8786 147.718 31.9469 148.074 32.0837C148.432 32.2173 148.7 32.4224 148.876 32.6989C149.052 32.9754 149.14 33.3278 149.14 33.7562C149.14 34.1086 149.077 34.4033 148.949 34.6403C148.821 34.8742 148.654 35.0641 148.448 35.21C148.241 35.3558 148.021 35.4682 147.787 35.5472L149.614 38.5413H148.712L147.08 35.7614H145.695V38.5413H144.92V31.8786H146.72ZM146.675 32.5485H145.695V35.1051H146.752C147.296 35.1051 147.696 34.9943 147.951 34.7725C148.209 34.5507 148.338 34.2241 148.338 33.7926C148.338 33.34 148.202 33.0194 147.928 32.8311C147.658 32.6427 147.24 32.5485 146.675 32.5485Z" fill="black"/>
<path d="M153.611 38.5413L151.373 32.6442H151.337C151.349 32.7688 151.36 32.9207 151.369 33.0999C151.378 33.2792 151.386 33.4752 151.392 33.6878C151.398 33.8975 151.401 34.1117 151.401 34.3304V38.5413H150.681V31.8786H151.829L153.939 37.4203H153.971L156.113 31.8786H157.252V38.5413H156.487V34.2757C156.487 34.0782 156.49 33.8808 156.496 33.6833C156.502 33.4828 156.509 33.2944 156.519 33.1182C156.528 32.9389 156.537 32.784 156.546 32.6533H156.509L154.244 38.5413H153.611Z" fill="black"/>
<path d="M163.254 38.5413L162.434 36.4268H159.763L158.948 38.5413H158.164L160.771 31.8512H161.468L164.056 38.5413H163.254ZM162.202 35.7386L161.422 33.6377C161.404 33.583 161.374 33.4934 161.331 33.3688C161.292 33.2443 161.251 33.1151 161.208 32.9814C161.165 32.8478 161.131 32.7399 161.103 32.6579C161.073 32.7824 161.039 32.907 161.003 33.0316C160.97 33.1531 160.936 33.267 160.903 33.3734C160.869 33.4767 160.84 33.5648 160.816 33.6377L160.023 35.7386H162.202Z" fill="black"/>
<path d="M167.028 38.5413H166.248V32.5622H164.152V31.8786H169.115V32.5622H167.028V38.5413Z" fill="black"/>
<path d="M170.122 38.5413V31.8786H170.897V38.5413H170.122Z" fill="black"/>
<path d="M178.507 35.2008C178.507 35.7143 178.442 36.1822 178.312 36.6045C178.181 37.0238 177.986 37.3853 177.728 37.6891C177.473 37.9899 177.156 38.2223 176.776 38.3864C176.396 38.5505 175.955 38.6325 175.454 38.6325C174.938 38.6325 174.486 38.5505 174.101 38.3864C173.718 38.2223 173.399 37.9884 173.144 37.6846C172.891 37.3808 172.702 37.0177 172.574 36.5954C172.449 36.1731 172.387 35.7052 172.387 35.1917C172.387 34.5112 172.499 33.9142 172.724 33.4007C172.949 32.8873 173.289 32.4877 173.745 32.2022C174.204 31.9166 174.778 31.7738 175.468 31.7738C176.127 31.7738 176.682 31.915 177.131 32.1976C177.584 32.4801 177.926 32.8781 178.157 33.3916C178.391 33.902 178.507 34.5051 178.507 35.2008ZM173.203 35.2008C173.203 35.766 173.283 36.2551 173.444 36.6683C173.605 37.0815 173.851 37.4005 174.183 37.6253C174.517 37.8502 174.941 37.9626 175.454 37.9626C175.971 37.9626 176.393 37.8502 176.721 37.6253C177.052 37.4005 177.297 37.0815 177.455 36.6683C177.613 36.2551 177.692 35.766 177.692 35.2008C177.692 34.341 177.511 33.6696 177.149 33.1865C176.791 32.7004 176.23 32.4574 175.468 32.4574C174.951 32.4574 174.526 32.5683 174.192 32.79C173.858 33.0118 173.608 33.3278 173.444 33.738C173.283 34.1451 173.203 34.6327 173.203 35.2008Z" fill="black"/>
<path d="M185.202 38.5413H184.309L180.677 32.945H180.64C180.649 33.0939 180.66 33.264 180.672 33.4554C180.684 33.6438 180.693 33.8458 180.7 34.0615C180.709 34.2742 180.713 34.4914 180.713 34.7132V38.5413H179.993V31.8786H180.882L184.5 37.4567H184.532C184.526 37.3504 184.519 37.2 184.509 37.0055C184.5 36.8081 184.491 36.5969 184.482 36.3721C184.476 36.1442 184.473 35.9331 184.473 35.7386V31.8786H185.202V38.5413Z" fill="black"/>
<path d="M193.205 36.7686C193.205 37.1635 193.106 37.5008 192.909 37.7803C192.714 38.0568 192.441 38.2679 192.088 38.4137C191.736 38.5596 191.321 38.6325 190.844 38.6325C190.592 38.6325 190.353 38.6203 190.129 38.596C189.904 38.5717 189.697 38.5368 189.509 38.4912C189.32 38.4456 189.155 38.3894 189.012 38.3226V37.5798C189.24 37.6739 189.518 37.762 189.846 37.8441C190.174 37.9231 190.517 37.9626 190.876 37.9626C191.21 37.9626 191.493 37.9185 191.724 37.8304C191.955 37.7393 192.129 37.6101 192.248 37.443C192.369 37.2729 192.43 37.0693 192.43 36.8324C192.43 36.6045 192.38 36.4146 192.28 36.2627C192.179 36.1078 192.012 35.968 191.778 35.8434C191.547 35.7158 191.231 35.5806 190.83 35.4378C190.548 35.3376 190.299 35.2282 190.083 35.1097C189.867 34.9882 189.687 34.8515 189.541 34.6995C189.395 34.5476 189.284 34.3714 189.208 34.1709C189.135 33.9704 189.099 33.741 189.099 33.4828C189.099 33.1273 189.188 32.8235 189.368 32.5713C189.55 32.3161 189.8 32.1216 190.119 31.988C190.442 31.8512 190.811 31.7829 191.227 31.7829C191.582 31.7829 191.91 31.8163 192.211 31.8831C192.515 31.95 192.793 32.0396 193.045 32.152L192.804 32.8174C192.564 32.7171 192.309 32.6336 192.038 32.5667C191.771 32.4999 191.494 32.4665 191.209 32.4665C190.923 32.4665 190.682 32.509 190.484 32.5941C190.29 32.6761 190.141 32.7931 190.037 32.945C189.934 33.0969 189.883 33.2777 189.883 33.4873C189.883 33.7212 189.931 33.9157 190.028 34.0706C190.129 34.2256 190.287 34.3638 190.502 34.4854C190.721 34.6038 191.01 34.7284 191.368 34.8591C191.76 35.0018 192.093 35.1538 192.366 35.3148C192.64 35.4728 192.848 35.6672 192.991 35.8981C193.133 36.126 193.205 36.4161 193.205 36.7686Z" fill="black"/>
<path d="M198.277 38.5413H194.567V31.8786H198.277V32.5622H195.342V34.7178H198.108V35.3923H195.342V37.8578H198.277V38.5413Z" fill="black"/>
<path d="M202.602 32.4665C202.234 32.4665 201.903 32.5303 201.608 32.6579C201.317 32.7824 201.068 32.9647 200.861 33.2048C200.657 33.4417 200.501 33.7288 200.392 34.0661C200.282 34.4033 200.228 34.7831 200.228 35.2054C200.228 35.7644 200.314 36.2505 200.487 36.6637C200.664 37.0739 200.925 37.3914 201.271 37.6162C201.621 37.841 202.057 37.9535 202.579 37.9535C202.877 37.9535 203.156 37.9291 203.418 37.8805C203.682 37.8289 203.939 37.7651 204.188 37.6891V38.3636C203.945 38.4548 203.69 38.5216 203.422 38.5641C203.155 38.6097 202.837 38.6325 202.47 38.6325C201.792 38.6325 201.226 38.4927 200.77 38.2132C200.317 37.9307 199.977 37.5327 199.749 37.0192C199.524 36.5058 199.412 35.8996 199.412 35.2008C199.412 34.6965 199.482 34.2362 199.621 33.82C199.764 33.4007 199.971 33.0392 200.241 32.7354C200.515 32.4315 200.849 32.1976 201.244 32.0335C201.642 31.8664 202.098 31.7829 202.611 31.7829C202.948 31.7829 203.273 31.8163 203.586 31.8831C203.899 31.95 204.182 32.0457 204.434 32.1702L204.124 32.8265C203.911 32.7293 203.677 32.6457 203.422 32.5758C203.17 32.5029 202.897 32.4665 202.602 32.4665Z" fill="black"/>
<path d="M210.673 31.8786V36.1898C210.673 36.6607 210.577 37.08 210.386 37.4476C210.197 37.8152 209.912 38.1054 209.529 38.318C209.146 38.5277 208.666 38.6325 208.089 38.6325C207.266 38.6325 206.638 38.4092 206.207 37.9626C205.778 37.516 205.564 36.9189 205.564 36.1716V31.8786H206.343V36.1943C206.343 36.7594 206.492 37.1954 206.79 37.5023C207.091 37.8091 207.539 37.9626 208.134 37.9626C208.542 37.9626 208.874 37.8897 209.133 37.7438C209.394 37.5949 209.587 37.3883 209.711 37.124C209.839 36.8567 209.903 36.5483 209.903 36.1989V31.8786H210.673Z" fill="black"/>
<path d="M214.241 31.8786C214.788 31.8786 215.239 31.9469 215.595 32.0837C215.953 32.2173 216.221 32.4224 216.397 32.6989C216.573 32.9754 216.661 33.3278 216.661 33.7562C216.661 34.1086 216.597 34.4033 216.47 34.6403C216.342 34.8742 216.175 35.0641 215.968 35.21C215.762 35.3558 215.542 35.4682 215.308 35.5472L217.135 38.5413H216.233L214.601 35.7614H213.216V38.5413H212.441V31.8786H214.241ZM214.196 32.5485H213.216V35.1051H214.273C214.817 35.1051 215.216 34.9943 215.472 34.7725C215.73 34.5507 215.859 34.2241 215.859 33.7926C215.859 33.34 215.722 33.0194 215.449 32.8311C215.179 32.6427 214.761 32.5485 214.196 32.5485Z" fill="black"/>
<path d="M218.202 38.5413V31.8786H218.976V38.5413H218.202Z" fill="black"/>
<path d="M222.855 38.5413H222.075V32.5622H219.979V31.8786H224.942V32.5622H222.855V38.5413Z" fill="black"/>
<path d="M227.649 35.2191L229.422 31.8786H230.256L228.036 35.9574V38.5413H227.261V35.9938L225.037 31.8786H225.885L227.649 35.2191Z" fill="black"/>
<defs>
<linearGradient id="paint0_linear_1_265" x1="12.4589" y1="33.3497" x2="32.185" y2="-0.818679" gradientUnits="userSpaceOnUse">
<stop stop-color="#E6E7E8"/>
<stop offset="0.13" stop-color="#BBBDBF"/>
<stop offset="0.27" stop-color="#929497"/>
<stop offset="0.39" stop-color="#E6E7E8"/>
<stop offset="0.69" stop-color="#929497"/>
<stop offset="1" stop-color="#F1F1F2"/>
</linearGradient>
<linearGradient id="paint1_linear_1_265" x1="14.0645" y1="31.401" x2="30.8849" y2="2.26577" gradientUnits="userSpaceOnUse">
<stop stop-color="white"/>
<stop offset="0.8" stop-color="#58595B"/>
<stop offset="1" stop-color="white"/>
</linearGradient>
<linearGradient id="paint2_linear_1_265" x1="14.4739" y1="30.9109" x2="30.5765" y2="3.02104" gradientUnits="userSpaceOnUse">
<stop stop-color="#EC1C24"/>
<stop offset="0.41" stop-color="#C8252C"/>
<stop offset="1" stop-color="#EC1C24"/>
</linearGradient>
</defs>
</svg>
